<?xml version="1.0" encoding="utf-8"?>
<!-- Generator: Adobe Illustrator 21.1.0, SVG Export Plug-In . SVG Version: 6.00 Build 0)  -->
<svg version="1.1" xmlns="http://www.w3.org/2000/svg" xmlns:xlink="http://www.w3.org/1999/xlink" x="0px" y="0px"
	 viewBox="0 0 200 200" style="enable-background:new 0 0 200 200;" xml:space="preserve">
<style type="text/css">
	.st0{display:none;}
	.st1{display:inline;fill:#FF6B54;}
	.st2{display:inline;fill:#721E1A;}
	.st3{display:inline;fill:#AA2315;}
	.st4{display:inline;fill:#89372F;}
	.st5{display:inline;fill:#63430A;}
	.st6{display:inline;fill:#91B8DB;}
	.st7{display:inline;fill:#77A6C9;}
	.st8{fill:none;stroke:#FACFAC;stroke-miterlimit:10;}
	.st9{fill:#FEFF71;}
	.st10{fill:#844A18;}
	.st11{fill:#FACFAC;}
	.st12{fill:none;stroke:#000000;stroke-width:0.25;stroke-miterlimit:10;}
	.st13{fill:#77A6D8;}
	.st14{fill:#F74D4D;}
	.st15{fill:#53E5BE;}
	.st16{fill:#D6F45B;}
	.st17{fill:none;stroke:#A67C52;stroke-width:2;stroke-miterlimit:10;}
	.st18{fill:#8E6700;stroke:#A67C52;stroke-width:2;stroke-miterlimit:10;}
</style>
<g id="Слой_1" class="st0">
	<path id="Серый_46_" class="st1" d="M195.9,88.5c-15.3-8.3-30.7-16.7-46-25C104.2,88.8,58.6,114,12.9,139.3
		c15.3,8.3,30.7,16.7,46,25C104.6,139,150.2,113.7,195.9,88.5z"/>
	<path id="Серый_49_" class="st2" d="M149.9,63.5c-3.4-8.9-6.8-17.8-10.2-26.8c-8.8,3.8-17.6,7.6-26.4,11.5
		c-6.7-4.7-13.4-9.4-20-14.1l-70.6,39c-6.2,12-12.4,23.9-18.6,35.9c2.9,10.1,5.9,20.2,8.8,30.3C58.6,114,104.2,88.8,149.9,63.5z"/>
	<path id="Серый_53_" class="st3" d="M185.7,61.7c-15.3-8.3-30.7-16.7-46-25c-8.8,3.8-17.6,7.6-26.4,11.5
		c15.3,8.3,30.7,16.7,46,25C168.1,69.4,176.9,65.5,185.7,61.7z"/>
	<path id="Серый_47_" class="st4" d="M195.9,88.5c-3.4-8.9-6.8-17.8-10.2-26.8c-8.8,3.8-17.6,7.6-26.4,11.5
		c-6.7-4.7-13.4-9.4-20-14.1l-70.6,39c-6.2,12-12.4,23.9-18.6,35.9c2.9,10.1,5.9,20.2,8.8,30.3C104.6,139,150.2,113.7,195.9,88.5z"
		/>
	<path id="Серый_48_" class="st3" d="M139.3,59.1c-15.3-8.3-30.7-16.7-46-25c-23.5,13-47,26-70.6,39c15.3,8.3,30.7,16.7,46,25
		C92.2,85.1,115.8,72.1,139.3,59.1z"/>
	<path id="Серый_51_" class="st3" d="M68.7,98.1c-15.3-8.3-30.7-16.7-46-25c-6.2,12-12.4,23.9-18.6,35.9
		c15.3,8.3,30.7,16.7,46,25C56.3,122,62.5,110.1,68.7,98.1z"/>
	<path id="Серый_52_" class="st3" d="M50.1,134c-15.3-8.3-30.7-16.7-46-25c2.9,10.1,5.9,20.2,8.8,30.3
		c15.3,8.3,30.7,16.7,46,25C56,154.2,53.1,144.1,50.1,134z"/>
	<path class="st5" d="M99.3,141.9c3.9,10.3-4.1,23.1-15.1,23.9c-8.7,0.7-17.7-6.3-18.5-16c-0.7-8.6,5.2-16.7,13.8-18.5
		C88.1,129.5,96.6,134.6,99.3,141.9z"/>
	<path class="st5" d="M184.7,97.1c3.9,10.3-4.1,23.1-15.1,23.9c-8.7,0.7-17.7-6.3-18.5-16c-0.7-8.6,5.2-16.7,13.8-18.5
		C173.5,84.6,181.9,89.8,184.7,97.1z"/>
</g>
<g id="Слой_2" class="st0">
	<path class="st6" d="M169.3,174.1c-7.2-4.1-14.3-8.2-21.5-12.3c-20.7-11.8-36.4-20.6-40.3-22.8c-15.6-8.8-35.7-19.9-59.5-32.8
		c0.3-3,1.7-13.9,10.6-21.7c2.1-1.9,8-7.3,16.1-6.8c9.6,0.6,17.8,5.9,22.5,13.6c7-6.3,16.3-9.8,26.4-9.2
		c17.5,1.1,31.2,14.5,33.3,31.3c0.6,0,1.2,0,1.8,0.1c19.8,1.3,34.9,16.3,33.8,33.5C191.7,159.7,182.2,170.1,169.3,174.1z"/>
	<path class="st7" d="M128.8,122.3c-7.2-4.1-14.3-8.2-21.5-12.3C86.7,98.2,71,89.4,67,87.2C51.4,78.4,31.3,67.3,7.4,54.4
		c0.3-3,1.7-13.9,10.6-21.7c2.1-1.9,8-7.3,16.1-6.8c9.6,0.6,17.8,5.9,22.5,13.6c7-6.3,16.3-9.8,26.4-9.2
		c17.5,1.1,31.2,14.5,33.3,31.3c0.6,0,1.2,0,1.8,0.1c19.8,1.3,34.9,16.3,33.8,33.5C151.2,107.9,141.7,118.3,128.8,122.3z"/>
</g>
<g id="Слой_8">
	<line class="st8" x1="110.5" y1="171.4" x2="114.7" y2="174.2"/>
	<line class="st8" x1="116.7" y1="166.2" x2="114.6" y2="174.7"/>
	<line class="st8" x1="116.7" y1="162.6" x2="116.7" y2="166.2"/>
	<line class="st8" x1="115.1" y1="163.2" x2="116.7" y2="166.2"/>
	<line class="st8" x1="118.2" y1="163.2" x2="116.7" y2="166.2"/>
	<line class="st8" x1="113.8" y1="165.4" x2="116.1" y2="166.2"/>
	<line class="st8" x1="119.3" y1="164.4" x2="116.5" y2="166.8"/>
	<path class="st9" d="M105,192.5h-2.7c-2.5,0-4.6-2.1-4.6-4.6v-16.5c0-2.5,2.1-4.6,4.6-4.6h2.7c2.5,0,4.6,2.1,4.6,4.6v16.5
		C109.6,190.4,107.5,192.5,105,192.5z"/>
	<path class="st9" d="M109.9,172.6l-2.8-1.8c-0.6-0.4-0.7-1.2-0.3-1.7l0,0c0.4-0.6,1.2-0.7,1.8-0.3l2.8,1.8c0.6,0.4,0.7,1.2,0.3,1.7
		l0,0C111.3,172.8,110.5,173,109.9,172.6z"/>
	<ellipse class="st10" cx="104.1" cy="160.8" rx="7.6" ry="6.6"/>
	<ellipse class="st11" cx="104.1" cy="163" rx="7.2" ry="6.8"/>
	<path class="st12" d="M101.8,165.1c-0.1,0.3-0.2,0.7-0.2,1.2c0,0.3,0.1,0.5,0.1,0.7"/>
	<path class="st12" d="M101.7,167c0.1,0,0.3,0.1,0.6,0c0.4-0.1,0.5-0.6,0.5-0.6"/>
	<path class="st12" d="M102.7,166.6c0,0.1-0.1,0.2,0,0.4c0.1,0.3,0.5,0.4,0.6,0.4"/>
	<path class="st12" d="M103.3,167.4c0.1,0,0.3-0.1,0.5-0.3c0.5-0.4,0.4-1.1,0.4-1.1"/>
</g>
<g id="Слой_3">
	<path class="st13" d="M82.3,142c8.6,2,20.1,3.4,33.2,1.9c3.8-0.5,7.4-1.1,10.7-1.9c49.5-29.6,57.3-89.5,30.7-119.7
		C131.8-6.3,73.8-9.2,46.4,22.7c-24.3,28.4-13.1,71.1,5.1,94.8C61.5,130.6,73.8,138,82.3,142z"/>
</g>
<g id="Слой_6">
</g>
<g id="Слой_5">
	<path class="st14" d="M85.4,1.2c-4.5,16.5-9.4,40.6-8.8,69.7c0.7,35.8,11.5,69.2,5.7,71.1c-1.5,0.5-3.5-1.4-6-4.1
		c-13.6-14.8-26.5-28.8-31.2-53.2c-1.7-8.9-4.4-22.5,0.6-38.7C54.4,17.9,79.2,4.4,85.4,1.2z"/>
	<path class="st15" d="M102.4-0.1C94.6,0.1,88.8,40.7,89,72.2c0.2,31,6.4,71,14.1,71.2c7.5,0.2,16.4-36.8,16.5-70.2
		C119.7,37.9,110-0.4,102.4-0.1z"/>
	<path class="st16" d="M117.2,1.3c-5.4,2.8,11,27.3,11.6,71.6c0.5,43.7-14.9,68.1-9.6,70.6c6.8,3.2,43.5-31.6,42.2-73.4
		C160.1,29.7,124-2.1,117.2,1.3z"/>
</g>
<g id="Слой_7">
</g>
<g id="Слой_4">
	<line class="st17" x1="82.3" y1="142" x2="84" y2="183.2"/>
	<line class="st17" x1="126.7" y1="140.8" x2="124.3" y2="182.3"/>
	<rect x="83.2" y="183.2" class="st18" width="42.3" height="17"/>
	<path class="st17" d="M74.4,4C68.6,13.2,54.7,38,56,72.2c1.5,36.6,19.6,61.5,26.3,69.8"/>
	<path class="st17" d="M126.7,140.8c6.1-7.1,24.9-30.5,26.5-65.9c1.7-37.7-17.3-63.9-22.8-71"/>
</g>
</svg>
