<?xml version="1.0" encoding="utf-8"?>
<!-- Generator: Adobe Illustrator 21.1.0, SVG Export Plug-In . SVG Version: 6.00 Build 0)  -->
<svg version="1.1" xmlns="http://www.w3.org/2000/svg" xmlns:xlink="http://www.w3.org/1999/xlink" x="0px" y="0px"
	 viewBox="0 0 1920 1080" style="enable-background:new 0 0 1920 1080;" xml:space="preserve">
<style type="text/css">
	.st0{display:none;}
	.st1{display:inline;fill:#55CE4E;}
	.st2{display:inline;fill:#6FF26B;}
	.st3{display:inline;fill:#4C4C4C;}
	.st4{display:inline;fill:#848484;stroke:#848484;stroke-width:2;stroke-miterlimit:10;}
	.st5{fill:#848484;}
	.st6{display:inline;fill:#848484;}
	.st7{display:inline;fill:#F4F4F4;}
	.st8{fill:#4C4C4C;}
	.st9{fill:#6F6FE2;}
	.st10{fill:#5A5AE5;}
	.st11{fill:#A4A4FF;}
	.st12{fill:#4040BC;}
	.st13{fill:#2B2B4C;}
	.st14{fill:#B8B8E8;}
	.st15{fill:#6363C6;}
	.st16{fill:#1F1FB2;}
	.st17{display:none;fill:#6363C6;}
</style>
<g id="Слой_2" class="st0">
	<polygon class="st1" points="963.9,1076 29.6,551 962.9,26 1896.3,552.9 	"/>
	<rect x="29.7" y="530" class="st1" width="28.3" height="21"/>
	<rect x="1877.2" y="531.9" class="st1" width="19.1" height="21.1"/>
	<polygon class="st2" points="964,1055 29.7,530 963,5 1896.3,531.9 	"/>
</g>
<g id="Слой_3" class="st0">
	<polygon class="st3" points="595.1,833.5 480.3,769 595,704.5 709.7,769.2 	"/>
	<polygon class="st3" points="709.7,769.2 594.9,704.7 709.5,640.2 824.2,705 	"/>
	<polygon class="st3" points="1053.4,576.7 938.6,512.2 1053.3,447.7 1167.9,512.4 	"/>
	<polygon class="st3" points="1397.4,383.2 1282.6,318.7 1397.3,254.2 1511.9,318.9 	"/>
	<polygon class="st3" points="1282.7,447.7 1167.9,383.2 1282.6,318.7 1397.3,383.4 	"/>
	<polygon class="st3" points="1168,512.2 1053.3,447.7 1167.9,383.2 1282.6,447.9 	"/>
	<polygon class="st3" points="938.8,640.7 824,576.2 938.6,511.7 1053.3,576.5 	"/>
	<polygon class="st3" points="824.2,705 709.4,640.5 824.1,576 938.8,640.7 	"/>
	<rect x="480.3" y="762.5" class="st3" width="6.5" height="6.5"/>
	<rect x="1505.7" y="312.4" class="st3" width="6.3" height="6.3"/>
	<polygon class="st4" points="595.1,827 480.3,762.5 595,698 709.7,762.7 	"/>
	<polygon class="st4" points="709.7,762.7 594.9,698.2 709.5,633.7 824.2,698.5 	"/>
	<polygon class="st4" points="1053.4,570.2 938.6,505.7 1053.3,441.2 1167.9,505.9 	"/>
	<polygon class="st3" points="1392.1,509.2 1277.3,444.7 1392,380.2 1506.7,445 	"/>
	<polygon class="st3" points="1506.8,573.7 1392,509.2 1506.7,444.7 1621.3,509.5 	"/>
	<polygon class="st3" points="1621.5,638.2 1506.7,573.7 1621.3,509.2 1736,574 	"/>
	<polygon class="st3" points="1663.1,661.7 1548.3,597.2 1663,532.7 1777.7,597.5 	"/>
	<polygon class="st3" points="891.8,227.7 777,163.2 891.7,98.7 1006.3,163.5 	"/>
	<polygon class="st3" points="855.5,207.4 740.8,142.9 855.4,78.4 970.1,143.1 	"/>
	<polygon class="st3" points="1006.5,292.2 891.7,227.7 1006.3,163.2 1121,228 	"/>
	<polygon class="st3" points="1121.1,356.7 1006.3,292.2 1121,227.7 1235.7,292.5 	"/>
	<polygon class="st3" points="1162.8,380.2 1048,315.7 1162.7,251.2 1277.3,316 	"/>
	<rect x="1768.8" y="590.6" class="st3" width="8.9" height="6.6"/>
	<rect x="739.6" y="135.6" class="st3" width="8.9" height="6.6"/>
	<polygon id="темный" class="st3" points="1331.5,803 1262.9,764.5 1331.4,725.9 1399.9,764.6 	"/>
	<polygon id="темный_1_" class="st3" points="930.5,509.5 861.9,470.9 930.4,432.4 998.9,471.1 	"/>
	<polygon id="темный_2_" class="st3" points="862,470.9 793.4,432.4 861.9,393.9 930.4,432.6 	"/>
	<polygon id="темный_3_" class="st3" points="793.5,432.4 725,393.9 793.4,355.4 861.9,394.1 	"/>
	<polygon id="Серый_17_" class="st3" points="1370.6,825.1 1302.1,786.5 1370.5,748 1439,786.7 	"/>
	<polygon id="Серый_9_" class="st3" points="1263,764.5 1194.4,725.9 1262.9,687.4 1331.4,726.1 	"/>
	<polygon id="Серый_10_" class="st3" points="1240.7,752 1172.1,713.4 1240.6,674.9 1309.1,713.6 	"/>
	<polygon id="Серый_11_" class="st3" points="1315.7,709.1 1247.1,670.6 1315.6,632 1384.1,670.7 	"/>
	<polygon id="Серый_15_" class="st3" points="1313.7,710.2 1245.1,671.7 1313.6,633.2 1382.1,671.9 	"/>
	<polygon id="Серый_12_" class="st3" points="1384,670.8 1315.4,632.3 1383.9,593.7 1452.4,632.4 	"/>
	<polygon id="Серый_13_" class="st3" points="1452.4,632.4 1383.8,593.9 1452.3,555.4 1520.8,594 	"/>
	<polygon id="Серый_14_" class="st3" points="1520.8,594 1452.2,555.5 1520.7,517 1589.2,555.7 	"/>
	<polygon class="st5" points="2081.4,172.2 1966.6,107.7 2081.3,43.2 2195.9,107.9 	"/>
	<polygon class="st4" points="1397.4,376.7 1282.6,312.2 1397.3,247.7 1511.9,312.4 	"/>
	<polygon id="Серый" class="st5" points="2106.8,90.5 1992,26 2106.7,-38.5 2221.3,26.2 	"/>
	<polygon id="Серый_1_" class="st4" points="1462.9,619 1394.3,580.5 1462.8,541.9 1531.3,580.6 	"/>
	<polygon id="Серый_2_" class="st4" points="1396.1,656.5 1327.6,618 1396.1,579.5 1464.5,618.1 	"/>
	<polygon class="st3" points="1399.9,757.3 1393.4,760.9 1399.9,764.6 	"/>
	<polygon class="st3" points="1171.4,705.6 1178.7,709.7 1172.1,713.4 	"/>
	<polygon id="Серый_3_" class="st4" points="1328.2,694.6 1259.6,656.1 1328.1,617.6 1396.6,656.3 	"/>
	<polygon id="Серый_4_" class="st4" points="1260,732.9 1191.4,694.4 1259.9,655.8 1328.4,694.5 	"/>
	<polygon id="Серый_5_" class="st4" points="1240,744.1 1171.4,705.6 1239.9,667.1 1308.4,705.7 	"/>
	<polygon id="Серый_6_" class="st4" points="1308.5,782.6 1239.9,744.1 1308.4,705.6 1376.9,744.3 	"/>
	<polygon id="Серый_8_" class="st4" points="936.7,507.2 868.1,468.7 936.6,430.2 1005.1,468.8 	"/>
	<polygon id="Серый_18_" class="st4" points="868.2,468.7 799.6,430.2 868.1,391.6 936.6,430.3 	"/>
	<polygon id="Серый_7_" class="st4" points="1331.5,795.6 1262.9,757.1 1331.4,718.6 1399.9,757.3 	"/>
	<polygon id="Серый_16_" class="st4" points="1370.6,817.7 1302.1,779.1 1370.5,740.6 1439,779.3 	"/>
	<polygon class="st4" points="1168,376.7 1053.3,312.2 1167.9,247.7 1282.6,312.4 	"/>
	<polygon class="st4" points="1053.4,312.2 938.6,247.7 1053.3,183.2 1167.9,247.9 	"/>
	<polygon class="st4" points="938.7,247.7 823.9,183.2 938.6,118.7 1053.3,183.4 	"/>
	<polygon class="st4" points="854.4,200.1 739.6,135.6 854.3,71.1 968.9,135.8 	"/>
	<polygon class="st4" points="1397.4,505.7 1282.6,441.2 1397.3,376.7 1511.9,441.4 	"/>
	<polygon class="st4" points="1512,570.2 1397.3,505.7 1511.9,441.2 1626.6,505.9 	"/>
	<polygon class="st4" points="1626.7,634.7 1511.9,570.2 1626.6,505.7 1741.3,570.4 	"/>
	<polygon class="st4" points="1663.1,654.8 1548.3,590.3 1663,525.8 1777.7,590.6 	"/>
	<polygon class="st4" points="1282.7,441.2 1167.9,376.7 1282.6,312.2 1397.3,376.9 	"/>
	<polygon class="st4" points="1168,505.7 1053.3,441.2 1167.9,376.7 1282.6,441.4 	"/>
	<polygon class="st4" points="938.8,634.2 824,569.7 938.6,505.2 1053.3,570 	"/>
	<polygon class="st4" points="824.2,698.5 709.4,634 824.1,569.5 938.8,634.2 	"/>
	<polygon class="st3" points="739.6,142.2 740.8,142.9 741.9,142.2 	"/>
	<path class="st3" d="M1393.4,760.9"/>
	<ellipse class="st3" cx="694.3" cy="336.5" rx="105.3" ry="67.3"/>
	<polygon class="st3" points="1439,779.3 1439,786.7 1432.5,783 	"/>
	<polygon id="Серый_25_" class="st3" points="951.3,689.3 896.2,658.3 951.3,627.3 1006.4,658.4 	"/>
	<polygon id="Серый_26_" class="st3" points="1006.5,720.3 951.3,689.3 1006.4,658.3 1061.5,689.4 	"/>
	<polygon id="Серый_27_" class="st3" points="1067.3,756.4 1012.1,725.4 1067.3,694.4 1122.4,725.5 	"/>
	<polygon id="Серый_28_" class="st3" points="1012.2,787.4 957,756.4 1012.1,725.4 1067.3,756.5 	"/>
	<polygon id="Серый_29_" class="st3" points="957.1,818.4 901.9,787.4 957,756.4 1012.1,787.5 	"/>
	<polygon id="Серый_19_" class="st4" points="799.7,430.2 731.2,391.6 799.6,353.1 868.1,391.8 	"/>
	<polygon id="Серый_20_" class="st4" points="957.1,685.8 901.9,654.8 957,623.8 1012.1,654.9 	"/>
	<polygon id="Серый_21_" class="st4" points="1012.2,716.8 957,685.8 1012.1,654.8 1067.3,686 	"/>
	<polygon id="Серый_22_" class="st4" points="1067.3,747.9 1012.1,716.8 1067.3,685.8 1122.4,717 	"/>
	<polygon id="Серый_23_" class="st4" points="1012.2,778.9 957,747.9 1012.1,716.8 1067.3,748 	"/>
	<polygon id="Серый_24_" class="st4" points="957.1,809.9 901.9,778.9 957,747.9 1012.1,779 	"/>
	<ellipse class="st6" cx="698.6" cy="332.5" rx="105.3" ry="67.3"/>
	<polygon class="st3" points="901.9,778.9 909.4,783.1 901.9,787.4 	"/>
</g>
<g id="Слой_4" class="st0">
	<path id="Серый_30_" class="st7" d="M583.2,777.2c-4.7-2.7-9.5-5.3-14.2-8c12.6-7.2,25.1-14.3,37.7-21.5
		c4.8,2.7,9.5,5.4,14.3,8C608.4,762.9,595.8,770.1,583.2,777.2z"/>
	<path id="Серый_31_" class="st7" d="M697.8,712.7c-4.7-2.7-9.5-5.3-14.2-8c12.6-7.2,25.1-14.3,37.7-21.5
		c4.8,2.7,9.5,5.4,14.3,8C722.9,698.4,710.4,705.6,697.8,712.7z"/>
	<path id="Серый_32_" class="st7" d="M812.3,648.7c-4.7-2.7-9.5-5.3-14.2-8c12.6-7.2,25.1-14.3,37.7-21.5
		c4.8,2.7,9.5,5.4,14.3,8C837.5,634.4,824.9,641.6,812.3,648.7z"/>
	<path id="Серый_33_" class="st7" d="M926.9,584.2c-4.7-2.7-9.5-5.3-14.2-8c12.6-7.2,25.1-14.3,37.7-21.5
		c4.8,2.7,9.5,5.4,14.3,8C952,569.9,939.4,577.1,926.9,584.2z"/>
	<path id="Серый_34_" class="st7" d="M1041.5,520.4c-4.7-2.7-9.5-5.3-14.2-8c12.6-7.2,25.1-14.3,37.7-21.5
		c4.8,2.7,9.5,5.4,14.3,8C1066.6,506.1,1054.1,513.3,1041.5,520.4z"/>
	<path id="Серый_35_" class="st7" d="M1156.1,451.7c-4.7-2.7-9.5-5.3-14.2-8c12.6-7.2,25.1-14.3,37.7-21.5
		c4.8,2.7,9.5,5.4,14.3,8C1181.3,437.4,1168.7,444.6,1156.1,451.7z"/>
	<path id="Серый_38_" class="st7" d="M1382.3,323.7c-4.7-2.7-9.5-5.3-14.2-8c12.6-7.2,25.1-14.3,37.7-21.5
		c4.8,2.7,9.5,5.4,14.3,8C1407.5,309.4,1394.9,316.6,1382.3,323.7z"/>
	<path id="Серый_36_" class="st7" d="M1600.3,563.7c4.9-2.7,9.8-5.4,14.7-8.1c12.6,7,25.2,14,37.9,21.1
		c-4.8,2.7-9.7,5.4-14.5,8.1C1625.6,577.7,1613,570.7,1600.3,563.7z"/>
	<path id="Серый_37_" class="st7" d="M1485.7,499.2c4.9-2.7,9.8-5.4,14.7-8.1c12.6,7,25.2,14,37.9,21.1
		c-4.8,2.7-9.7,5.4-14.5,8.1C1511,513.2,1498.3,506.2,1485.7,499.2z"/>
	<path id="Серый_39_" class="st7" d="M1371,434.7c4.9-2.7,9.8-5.4,14.7-8.1c12.6,7,25.2,14,37.9,21.1
		c-4.8,2.7-9.7,5.4-14.5,8.1C1396.3,448.7,1383.7,441.7,1371,434.7z"/>
	<path id="Серый_40_" class="st7" d="M1256.3,375c4.9-2.7,9.8-5.4,14.7-8.1c12.6,7,25.2,14,37.9,21.1
		c-4.8,2.7-9.7,5.4-14.5,8.1C1281.6,389,1269,382,1256.3,375z"/>
	<path id="Серый_41_" class="st7" d="M1141.7,305.7c4.9-2.7,9.8-5.4,14.7-8.1c12.6,7,25.2,14,37.9,21.1
		c-4.8,2.7-9.7,5.4-14.5,8.1C1167,319.7,1154.3,312.7,1141.7,305.7z"/>
	<path id="Серый_42_" class="st7" d="M1027,241.2c4.9-2.7,9.8-5.4,14.7-8.1c12.6,7,25.2,14,37.9,21.1
		c-4.8,2.7-9.7,5.4-14.5,8.1C1052.3,255.2,1039.7,248.2,1027,241.2z"/>
	<path id="Серый_43_" class="st7" d="M912.3,176.7c4.9-2.7,9.8-5.4,14.7-8.1c12.6,7,25.2,14,37.9,21.1
		c-4.8,2.7-9.7,5.4-14.5,8.1C937.6,190.7,925,183.7,912.3,176.7z"/>
	<path id="Серый_44_" class="st7" d="M806.5,117.9c4.9-2.7,9.8-5.4,14.7-8.1c12.6,7,25.2,14,37.9,21.1
		c-4.8,2.7-9.7,5.4-14.5,8.1C831.8,131.9,819.2,124.9,806.5,117.9z"/>
	<polygon class="st8" points="1122.4,717.6 1122.4,726.1 1114.8,721.8 	"/>
</g>
<g id="Слой_6">
	<polygon class="st9" points="863.4,948.9 693.9,853.7 863.2,758.5 1032.5,854.1 	"/>
	<polygon class="st10" points="863.4,745 694,649.8 863.3,554.6 1032.5,650.1 	"/>
	<path class="st11" d="M863.3,948.9l-169.5-95.2c0.1-68,0.1-136,0.2-204c56.4,31.7,112.7,63.4,169.1,95.2
		C863.1,812.9,863.2,880.9,863.3,948.9z"/>
	<path class="st12" d="M863.2,949.3c56.4-31.6,112.7-63.2,169.1-94.9c0.2-67.9,0.4-135.9,0.6-203.8
		c-56.7,31.6-113.4,63.1-170.1,94.7C863,813.3,863.1,881.3,863.2,949.3z"/>
	<polygon class="st9" points="1151.1,699.5 1023.1,627.7 1150.9,555.8 1278.7,627.9 	"/>
	<polygon class="st10" points="1151.1,545.6 1023.2,473.7 1151,401.8 1278.7,474 	"/>
	<path class="st11" d="M1151,699.5L1023,627.7c0-51.3,0.1-102.6,0.1-154c42.5,23.9,85.1,47.9,127.6,71.8
		C1150.8,596.9,1150.9,648.2,1151,699.5z"/>
	<path class="st12" d="M1150.9,699.8c42.5-23.9,85.1-47.7,127.6-71.6c0.2-51.3,0.3-102.6,0.5-153.8c-42.8,23.8-85.6,47.6-128.4,71.5
		C1150.8,597.2,1150.9,648.5,1150.9,699.8z"/>
</g>
<g id="Слой_7">
	<path class="st13" d="M751.4,166.5c0-0.1,0-0.1,0-0.2c-12.4-7-24.8-13.9-37.2-20.9c0,8.9,0,17.9,0,26.8
		c12.2,6.9,24.4,13.7,36.6,20.6c0,0.1,0,0.1,0,0.2c12.4,7,24.8,13.9,37.2,20.9c0-8.9,0-17.8,0-26.8
		C775.8,180.3,763.6,173.4,751.4,166.5z"/>
	<path class="st14" d="M721.5,165.9c0-8.9,0.1-17.9,0.1-26.8c-22.3,12.5-44.7,25.1-67,37.6c0,8.9,0,17.8-0.1,26.8L721.5,165.9z"/>
	<polygon class="st15" points="758.7,186.9 758.8,186.8 721.6,165.9 654.6,203.5 691.4,224.2 691.2,224.3 728.4,245.2 795.4,207.6 	
		"/>
	<path class="st14" d="M788.1,213.2c0-8.9,0-17.8,0-26.7c-22.3,12.5-44.6,25-67,37.5c0,8.9,0,17.8-0.1,26.8L788.1,213.2z"/>
	<polygon class="st16" points="758.7,160.1 758.8,160.1 721.6,139.1 654.6,176.8 691.4,197.4 691.2,197.5 728.4,218.4 795.4,180.8 	
		"/>
	<path class="st13" d="M691.8,197.8c0-0.1,0-0.1,0-0.2c-12.4-7-24.8-13.9-37.2-20.9c0,8.9,0,17.9,0,26.8
		c12.2,6.9,24.4,13.7,36.6,20.6c0,0.1,0,0.1,0,0.2c12.4,7,24.8,13.9,37.2,20.9c0-8.9,0-17.8,0-26.8
		C716.2,211.5,704,204.7,691.8,197.8z"/>
	<path class="st13" d="M1037.4,54c0-0.1,0-0.1,0-0.2c-14.1-8-28.3-15.9-42.4-23.9c0,10.2,0,20.4,0,30.6
		c13.9,7.8,27.9,15.7,41.8,23.5c0,0.1,0,0.1,0,0.2c14.1,7.9,28.3,15.9,42.4,23.8c0-10.2,0-20.4,0-30.5
		C1065.2,69.7,1051.3,61.9,1037.4,54z"/>
	<path class="st14" d="M994.9,60.6c0-10.2,0.1-20.4,0.1-30.6c-25.5,14.3-51,28.6-76.5,42.9c0,10.2,0,20.4-0.1,30.5L994.9,60.6z"/>
	<polygon class="st15" points="1037.3,84.5 1037.4,84.5 995,60.5 918.5,103.5 960.5,127.1 960.3,127.2 1002.7,151 1079.2,108.1 	"/>
	<path class="st14" d="M1079.2,108.1c0-10.1,0-20.3,0-30.4c-25.5,14.3-50.9,28.5-76.4,42.8c0,10.2,0,20.4-0.1,30.5L1079.2,108.1z"/>
	<polygon class="st16" points="1037.3,54 1037.4,53.9 995,30 918.5,73 960.5,96.5 960.3,96.6 1002.7,120.5 1079.2,77.6 	"/>
	<path class="st13" d="M960.9,97c0-0.1,0-0.1,0-0.2c-14.1-8-28.3-15.9-42.4-23.9c0,10.2,0,20.4,0,30.6c13.9,7.8,27.9,15.7,41.8,23.5
		c0,0.1,0,0.1,0,0.2c14.1,7.9,28.3,15.9,42.4,23.8c0-10.2,0-20.4,0-30.5C988.8,112.6,974.9,104.8,960.9,97z"/>
	<path class="st13" d="M1062.1,307.6c0-0.1,0-0.2,0-0.3c-21.1-11.9-42.2-23.7-63.2-35.6c0,15.2,0,30.4,0,45.5
		c20.8,11.7,41.5,23.3,62.3,35c0,0.1,0,0.2,0,0.3c21.1,11.8,42.2,23.7,63.2,35.5c0-15.2,0-30.3,0-45.5
		C1103.6,331,1082.8,319.3,1062.1,307.6z"/>
	<polygon class="st15" points="667.8,255.3 611.6,223.6 510.3,280.6 566.5,312.2 	"/>
	<path class="st14" d="M611.5,223.7c0-13.5,0.1-27,0.1-40.5c-33.8,19-67.6,37.9-101.3,56.9c0,13.5-0.1,27-0.1,40.5L611.5,223.7z"/>
	<path class="st14" d="M667.7,255.3c0-13.4,0-26.9,0.1-40.3c-33.7,18.9-67.5,37.8-101.2,56.6c0,13.5-0.1,27-0.1,40.5L667.7,255.3z"
		/>
	<polygon class="st16" points="667.8,214.9 611.6,183.2 510.3,240.1 566.5,271.7 	"/>
	<path class="st13" d="M566.5,312.2c-18.7-10.5-37.5-21.1-56.2-31.6c0-13.5,0-27,0-40.5c18.7,10.5,37.5,21.1,56.2,31.6
		C566.5,285.2,566.5,298.7,566.5,312.2z"/>
	<path class="st14" d="M999,316.1c0.1-15.2,0.1-30.4,0.2-45.6c-38,21.3-76,42.7-114,64c0,15.2-0.1,30.3-0.1,45.5L999,316.1z"/>
	<polygon class="st15" points="1062.3,351.8 1062.4,351.7 999.2,316 885.2,380.1 947.8,415.2 947.5,415.3 1010.7,450.9 1124.7,387 	
		"/>
	<path class="st14" d="M1124.6,387c0-15.1,0-30.2,0.1-45.3c-38,21.2-75.9,42.5-113.9,63.7c0,15.2-0.1,30.3-0.1,45.5L1124.6,387z"/>
	<polygon class="st16" points="1062.3,306.2 1062.4,306.2 999.2,270.5 885.2,334.5 947.8,369.7 947.5,369.8 1010.7,405.4 
		1124.7,341.5 	"/>
	<path class="st13" d="M948.5,370.3c0-0.1,0-0.2,0-0.3c-21.1-11.9-42.2-23.7-63.2-35.6c0,15.2,0,30.4,0,45.5
		c20.8,11.7,41.5,23.3,62.3,35c0,0.1,0,0.2,0,0.3c21.1,11.8,42.2,23.7,63.2,35.5c0-15.2,0-30.3,0-45.5
		C990,393.7,969.2,382,948.5,370.3z"/>
	<path class="st13" d="M1299.6,175.7c0-0.1,0-0.1,0-0.2c-17.4-9.8-34.8-19.6-52.2-29.3c0,12.5,0,25,0,37.6
		c17.1,9.6,34.3,19.2,51.4,28.9c0,0.1,0,0.2,0,0.2c17.4,9.8,34.8,19.5,52.2,29.3c0-12.5,0-25,0-37.5
		C1333.9,194.9,1316.7,185.3,1299.6,175.7z"/>
	<path class="st14" d="M1247.6,182.7c0-12.5,0.1-25.1,0.1-37.6c-31.4,17.6-62.7,35.2-94.1,52.8c0,12.5-0.1,25-0.1,37.5L1247.6,182.7
		z"/>
	<polygon class="st15" points="1299.8,212.1 1299.9,212 1247.8,182.6 1153.7,235.4 1205.3,264.4 1205.1,264.5 1257.3,293.9 
		1351.3,241.1 	"/>
	<path class="st14" d="M1351.2,241.1c0-39.2,0.1-78.4,0.1-117.5c-31.3,17.6-62.7,35.2-94,52.7c0,39.2-0.1,78.4-0.1,117.5
		L1351.2,241.1z"/>
	<polygon class="st16" points="1299.8,94.5 1299.9,94.5 1247.8,65 1153.7,117.9 1205.3,146.9 1205.1,147 1257.3,176.3 1351.3,123.6 
			"/>
	<path class="st13" d="M1227.7,159.7c-6.1-3.4-12.1-6.8-18.2-10.2c-18.6-10.5-37.2-21.1-55.9-31.6c0,39.2,0,78.4,0,117.5
		c17.1,9.6,34.3,19.2,51.4,28.9c0,0.1,0,0.2,0,0.2c17.4,9.8,34.8,19.5,52.2,29.3c0-39.2,0-78.4,0-117.5
		C1247.4,170.8,1237.6,165.3,1227.7,159.7z"/>
	<path class="st13" d="M878.5,185.9c0-0.1,0-0.2,0-0.2c-18.7-10.5-37.5-21.1-56.2-31.6c0,13.5,0,27,0,40.5
		c18.5,10.4,36.9,20.7,55.4,31.1c0,0.1,0,0.2,0,0.3c18.7,10.5,37.5,21.1,56.2,31.6c0-13.5,0-27,0-40.5
		C915.4,206.7,896.9,196.3,878.5,185.9z"/>
	<path class="st14" d="M822.4,193.5c0-13.5,0.1-27,0.1-40.5c-33.8,19-67.6,37.9-101.3,56.9c0,13.5-0.1,27-0.1,40.5L822.4,193.5z"/>
	<polygon class="st15" points="878.6,225.1 878.7,225.1 822.6,193.4 721.2,250.3 776.8,281.5 776.6,281.7 832.8,313.3 934.1,256.5 	
		"/>
	<path class="st14" d="M934,256.5c0-13.4,0-26.9,0.1-40.3c-33.7,18.9-67.5,37.8-101.2,56.6c0,13.5-0.1,27-0.1,40.5L934,256.5z"/>
	<polygon class="st16" points="878.6,184.7 878.7,184.6 822.6,152.9 721.2,209.8 776.8,241.1 776.6,241.2 832.8,272.8 934.1,216 	
		"/>
	<path class="st13" d="M777.5,241.7c0-0.1,0-0.2,0-0.2c-18.7-10.5-37.5-21.1-56.2-31.6c0,13.5,0,27,0,40.5
		c18.5,10.4,36.9,20.7,55.4,31.1c0,0.1,0,0.2,0,0.3c18.7,10.5,37.5,21.1,56.2,31.6c0-13.5,0-27,0-40.5
		C814.4,262.4,795.9,252,777.5,241.7z"/>
	<polygon class="st15" points="664.7,417.3 565.7,361.4 387,461.8 486.2,517.5 	"/>
	<path class="st14" d="M565.4,361.6c0.1-23.8,0.2-47.7,0.3-71.5C506.1,323.5,446.6,357,387,390.4c-0.1,23.8-0.1,47.6-0.2,71.3
		L565.4,361.6z"/>
	<path class="st14" d="M664.6,417.3c0-23.7,0.1-47.4,0.1-71c-59.5,33.3-119,66.6-178.5,99.9c-0.1,23.8-0.1,47.6-0.2,71.3
		L664.6,417.3z"/>
	<polygon class="st17" points="-341.3,497.4 -237.7,555.7 -122.2,490.9 -225.8,432.4 	"/>
	<polygon class="st16" points="664.7,346 565.7,290.1 387,390.5 486.2,446.2 	"/>
	<polygon class="st17" points="-29.4,647.4 -133,588.9 -204.2,629 -204.3,628.9 -319.8,693.9 -216.1,752.2 -144.8,712.2 
		-144.8,712.2 	"/>
	<path class="st13" d="M486.2,517.5c-33-18.6-66.1-37.1-99.1-55.7c0-23.8,0-47.6,0-71.4c33,18.6,66.1,37.2,99.1,55.8
		C486.2,470,486.2,493.7,486.2,517.5z"/>
</g>
<g id="Слой_5" class="st0">
</g>
<g id="Слой_1" class="st0">
	
		<image style="overflow:visible;" width="1980" height="1024" xlink:href="НовыйХолст1.jpg"  transform="matrix(0.9485 0 0 1 22 30)">
	</image>
	
		<image style="display:inline;overflow:visible;" width="1980" height="1024" xlink:href="город.png"  transform="matrix(0.9225 1.848070e-03 -1.848070e-03 0.9225 31.492 56.3408)">
	</image>
</g>
</svg>
