<?xml version="1.0" encoding="utf-8"?>
<!-- Generator: Adobe Illustrator 21.1.0, SVG Export Plug-In . SVG Version: 6.00 Build 0)  -->
<svg version="1.1" xmlns="http://www.w3.org/2000/svg" xmlns:xlink="http://www.w3.org/1999/xlink" x="0px" y="0px"
	 viewBox="0 0 200 200" style="enable-background:new 0 0 200 200;" xml:space="preserve">
<style type="text/css">
	.st0{display:none;}
	.st1{display:inline;fill:#FF6B54;}
	.st2{display:inline;fill:#721E1A;}
	.st3{display:inline;fill:#AA2315;}
	.st4{display:inline;fill:#89372F;}
	.st5{display:inline;fill:#63430A;}
	.st6{fill:#FF6B54;}
	.st7{fill:#721E1A;}
	.st8{fill:#5C53D3;}
	.st9{fill:#3333AA;}
	.st10{fill:#151B4C;}
	.st11{fill:#1A1F7C;}
	.st12{fill:#87C2CC;}
	.st13{fill:#212121;}
	.st14{fill:#5B5B5B;}
	.st15{fill:#FFE98D;}
</style>
<g id="Слой_1" class="st0">
	<path id="Серый_46_" class="st1" d="M4.1,88.5c15.3-8.3,30.7-16.7,46-25c45.6,25.3,91.3,50.6,136.9,75.8
		c-15.3,8.3-30.7,16.7-46,25C95.4,139,49.8,113.7,4.1,88.5z"/>
	<path id="Серый_49_" class="st2" d="M50.1,63.5c3.4-8.9,6.8-17.8,10.2-26.8c8.8,3.8,17.6,7.6,26.4,11.5
		c6.7-4.7,13.4-9.4,20-14.1l70.6,39c6.2,12,12.4,23.9,18.6,35.9c-2.9,10.1-5.9,20.2-8.8,30.3C141.4,114,95.8,88.8,50.1,63.5z"/>
	<path id="Серый_53_" class="st3" d="M14.3,61.7c15.3-8.3,30.7-16.7,46-25c8.8,3.8,17.6,7.6,26.4,11.5
		c-15.3,8.3-30.7,16.7-46,25C31.9,69.4,23.1,65.5,14.3,61.7z"/>
	<path id="Серый_47_" class="st4" d="M4.1,88.5c3.4-8.9,6.8-17.8,10.2-26.8c8.8,3.8,17.6,7.6,26.4,11.5
		c6.7-4.7,13.4-9.4,20-14.1l70.6,39c6.2,12,12.4,23.9,18.6,35.9c-2.9,10.1-5.9,20.2-8.8,30.3C95.4,139,49.8,113.7,4.1,88.5z"/>
	<path id="Серый_48_" class="st3" d="M60.7,59.1c15.3-8.3,30.7-16.7,46-25c23.5,13,47,26,70.6,39c-15.3,8.3-30.7,16.7-46,25
		C107.8,85.1,84.2,72.1,60.7,59.1z"/>
	<path id="Серый_51_" class="st3" d="M131.3,98.1c15.3-8.3,30.7-16.7,46-25c6.2,12,12.4,23.9,18.6,35.9
		c-15.3,8.3-30.7,16.7-46,25C143.7,122,137.5,110.1,131.3,98.1z"/>
	<path id="Серый_52_" class="st3" d="M149.9,134c15.3-8.3,30.7-16.7,46-25c-2.9,10.1-5.9,20.2-8.8,30.3
		c-15.3,8.3-30.7,16.7-46,25C144,154.2,146.9,144.1,149.9,134z"/>
	<path class="st5" d="M100.7,141.9c-3.9,10.3,4.1,23.1,15.1,23.9c8.7,0.7,17.7-6.3,18.5-16c0.7-8.6-5.2-16.7-13.8-18.5
		C111.9,129.5,103.4,134.6,100.7,141.9z"/>
	<path class="st5" d="M15.3,97.1c-3.9,10.3,4.1,23.1,15.1,23.9c8.7,0.7,17.7-6.3,18.5-16c0.7-8.6-5.2-16.7-13.8-18.5
		C26.5,84.6,18.1,89.8,15.3,97.1z"/>
</g>
<g id="Слой_2">
	<path id="Серый_62_" class="st6" d="M200,89.3c-14.2-8.9-28.4-17.8-42.6-26.7c-49.3,27.3-98.6,54.6-147.9,81.9
		c16.6,9,33.2,18,49.7,27C106.2,144.1,153.1,116.7,200,89.3z"/>
	<path id="Серый_61_" class="st7" d="M157.4,62.6c-4.9-9.1-9.8-18.2-14.7-27.3c-8.3,3.6-16.5,7.2-24.8,10.8
		c-7.2-4.7-14.4-9.3-21.6-14C70.9,45.7,45.5,59.3,20.1,73C13.4,85.9,6.7,98.8,0,111.8c3.2,10.9,6.3,21.8,9.5,32.7
		C58.8,117.2,108.1,89.9,157.4,62.6z"/>
	<path id="Серый_60_" class="st8" d="M196.2,60.7c-17.8-8.4-35.6-16.9-53.4-25.3c-8.3,3.6-16.5,7.2-24.8,10.8
		c16.6,9,33.2,18,49.7,27C177.2,68.9,186.7,64.8,196.2,60.7z"/>
	<path id="Серый_59_" class="st9" d="M200,89.3c-1.3-9.6-2.6-19.1-3.8-28.7c-9.5,4.1-19,8.3-28.5,12.4
		c-7.2-5.1-14.4-10.2-21.6-15.3L69.8,100c-6.7,12.9-13.4,25.9-20.1,38.8c3.2,10.9,6.3,21.8,9.5,32.7
		C106.2,144.1,153.1,116.7,200,89.3z"/>
	<path id="Серый_58_" class="st8" d="M146,57.8c-16.6-8.6-33.2-17.1-49.7-25.7C70.9,45.7,45.5,59.3,20.1,73
		c16.6,9,33.2,18,49.7,27C95.2,85.9,120.6,71.9,146,57.8z"/>
	<path id="Серый_57_" class="st10" d="M56.1,65.3c6.2,3.3,12.4,6.6,18.7,9.9c9.4-5.3,18.8-10.7,28.2-16
		c-6.2-3.3-12.4-6.6-18.7-9.9C74.9,54.6,65.5,60,56.1,65.3z"/>
	<path id="Серый_56_" class="st11" d="M69.8,100c-16.6-9-33.2-18-49.7-27C13.4,85.9,6.7,98.8,0,111.8c16.6,9,33.2,18,49.7,27
		C56.4,125.8,63.1,112.9,69.8,100z"/>
	<path id="Серый_55_" class="st12" d="M61.1,98.6c-12.8-6.9-25.5-13.9-38.3-20.8c-5.1,10-10.3,19.9-15.4,29.9
		c12.8,6.9,25.5,13.9,38.3,20.8C50.8,118.5,56,108.5,61.1,98.6z"/>
	<path id="Серый_54_" class="st11" d="M49.7,138.8c-16.6-9-33.2-18-49.7-27c3.2,10.9,6.3,21.8,9.5,32.7c16.6,9,33.2,18,49.7,27
		C56.1,160.6,52.9,149.7,49.7,138.8z"/>
	<path class="st13" d="M190.8,100.1c2.7,10.1-5.2,21.7-15.7,22.3c-7.8,0.5-15.3-5.2-17.3-12.6c-2.8-10.2,5.3-21.9,15.8-22.5
		C181.4,87,188.8,92.7,190.8,100.1z"/>
	<path class="st14" d="M186.9,101.1c2,7.6-3.9,16.2-11.7,16.7c-5.8,0.4-11.4-3.9-12.9-9.4c-2.1-7.6,3.9-16.4,11.8-16.8
		C179.9,91.2,185.4,95.5,186.9,101.1z"/>
	<path class="st13" d="M109,147.1c2.7,10.1-5.2,21.7-15.7,22.3c-7.8,0.5-15.3-5.2-17.3-12.6c-2.8-10.2,5.3-21.9,15.8-22.5
		C99.6,134,107,139.7,109,147.1z"/>
	<path class="st14" d="M104.8,148.3c2,7.6-3.9,16.2-11.7,16.7c-5.8,0.4-11.4-3.9-12.9-9.4c-2.1-7.6,3.9-16.4,11.8-16.8
		C97.8,138.5,103.3,142.8,104.8,148.3z"/>
	<polygon class="st12" points="146,62.6 163,75.2 124.9,94.7 117.9,77.8 	"/>
	<polygon class="st12" points="106.6,83.7 112.8,100 59.2,130.1 72.8,103.1 	"/>
	<path class="st15" d="M196.6,63.8c-2.6,1.3-5.3,2.6-7.9,3.9l1.6,7.5l7.3-3.7C197.3,68.9,196.9,66.4,196.6,63.8z"/>
</g>
</svg>
