<?xml version="1.0" encoding="utf-8"?>
<!-- Generator: Adobe Illustrator 21.1.0, SVG Export Plug-In . SVG Version: 6.00 Build 0)  -->
<svg version="1.1" xmlns="http://www.w3.org/2000/svg" xmlns:xlink="http://www.w3.org/1999/xlink" x="0px" y="0px"
	 viewBox="0 0 200 200" style="enable-background:new 0 0 200 200;" xml:space="preserve">
<style type="text/css">
	.st0{display:none;}
	.st1{display:inline;fill:#FF6B54;}
	.st2{display:inline;fill:#721E1A;}
	.st3{display:inline;fill:#AA2315;}
	.st4{display:inline;fill:#89372F;}
	.st5{display:inline;fill:#63430A;}
	.st6{display:inline;fill:#5C53D3;}
	.st7{display:inline;fill:#3333AA;}
	.st8{display:inline;fill:#151B4C;}
	.st9{display:inline;fill:#1A1F7C;}
	.st10{display:inline;fill:#87C2CC;}
	.st11{display:inline;fill:#212121;}
	.st12{display:inline;fill:#5B5B5B;}
	.st13{display:inline;fill:#FFE98D;}
	.st14{fill:#FF6B54;}
	.st15{fill:#721E1A;}
	.st16{fill:#BA2D2A;}
	.st17{fill:#AA2315;}
	.st18{fill:#B52A23;}
	.st19{fill:#721915;}
	.st20{fill:#931C16;}
	.st21{fill:#87C2CC;}
	.st22{fill:#212121;}
	.st23{fill:#5B5B5B;}
	.st24{fill:#FFE98D;}
</style>
<g id="Слой_1" class="st0">
	<path id="Серый_46_" class="st1" d="M4.1,88.5c15.3-8.3,30.7-16.7,46-25c45.6,25.3,91.3,50.6,136.9,75.8
		c-15.3,8.3-30.7,16.7-46,25C95.4,139,49.8,113.7,4.1,88.5z"/>
	<path id="Серый_49_" class="st2" d="M50.1,63.5c3.4-8.9,6.8-17.8,10.2-26.8c8.8,3.8,17.6,7.6,26.4,11.5
		c6.7-4.7,13.4-9.4,20-14.1l70.6,39c6.2,12,12.4,23.9,18.6,35.9c-2.9,10.1-5.9,20.2-8.8,30.3C141.4,114,95.8,88.8,50.1,63.5z"/>
	<path id="Серый_53_" class="st3" d="M14.3,61.7c15.3-8.3,30.7-16.7,46-25c8.8,3.8,17.6,7.6,26.4,11.5
		c-15.3,8.3-30.7,16.7-46,25C31.9,69.4,23.1,65.5,14.3,61.7z"/>
	<path id="Серый_47_" class="st4" d="M4.1,88.5c3.4-8.9,6.8-17.8,10.2-26.8c8.8,3.8,17.6,7.6,26.4,11.5
		c6.7-4.7,13.4-9.4,20-14.1l70.6,39c6.2,12,12.4,23.9,18.6,35.9c-2.9,10.1-5.9,20.2-8.8,30.3C95.4,139,49.8,113.7,4.1,88.5z"/>
	<path id="Серый_48_" class="st3" d="M60.7,59.1c15.3-8.3,30.7-16.7,46-25c23.5,13,47,26,70.6,39c-15.3,8.3-30.7,16.7-46,25
		C107.8,85.1,84.2,72.1,60.7,59.1z"/>
	<path id="Серый_51_" class="st3" d="M131.3,98.1c15.3-8.3,30.7-16.7,46-25c6.2,12,12.4,23.9,18.6,35.9
		c-15.3,8.3-30.7,16.7-46,25C143.7,122,137.5,110.1,131.3,98.1z"/>
	<path id="Серый_52_" class="st3" d="M149.9,134c15.3-8.3,30.7-16.7,46-25c-2.9,10.1-5.9,20.2-8.8,30.3
		c-15.3,8.3-30.7,16.7-46,25C144,154.2,146.9,144.1,149.9,134z"/>
	<path class="st5" d="M100.7,141.9c-3.9,10.3,4.1,23.1,15.1,23.9c8.7,0.7,17.7-6.3,18.5-16c0.7-8.6-5.2-16.7-13.8-18.5
		C111.9,129.5,103.4,134.6,100.7,141.9z"/>
	<path class="st5" d="M15.3,97.1c-3.9,10.3,4.1,23.1,15.1,23.9c8.7,0.7,17.7-6.3,18.5-16c0.7-8.6-5.2-16.7-13.8-18.5
		C26.5,84.6,18.1,89.8,15.3,97.1z"/>
</g>
<g id="Слой_2" class="st0">
	<path id="Серый_62_" class="st1" d="M200,89.3c-14.2-8.9-28.4-17.8-42.6-26.7c-49.3,27.3-98.6,54.6-147.9,81.9
		c16.6,9,33.2,18,49.7,27C106.2,144.1,153.1,116.7,200,89.3z"/>
	<path id="Серый_61_" class="st2" d="M157.4,62.6c-4.9-9.1-9.8-18.2-14.7-27.3c-8.3,3.6-16.5,7.2-24.8,10.8
		c-7.2-4.7-14.4-9.3-21.6-14C70.9,45.7,45.5,59.3,20.1,73C13.4,85.9,6.7,98.8,0,111.8c3.2,10.9,6.3,21.8,9.5,32.7
		C58.8,117.2,108.1,89.9,157.4,62.6z"/>
	<path id="Серый_60_" class="st6" d="M196.2,60.7c-17.8-8.4-35.6-16.9-53.4-25.3c-8.3,3.6-16.5,7.2-24.8,10.8
		c16.6,9,33.2,18,49.7,27C177.2,68.9,186.7,64.8,196.2,60.7z"/>
	<path id="Серый_59_" class="st7" d="M200,89.3c-1.3-9.6-2.6-19.1-3.8-28.7c-9.5,4.1-19,8.3-28.5,12.4
		c-7.2-5.1-14.4-10.2-21.6-15.3L69.8,100c-6.7,12.9-13.4,25.9-20.1,38.8c3.2,10.9,6.3,21.8,9.5,32.7
		C106.2,144.1,153.1,116.7,200,89.3z"/>
	<path id="Серый_58_" class="st6" d="M146,57.8c-16.6-8.6-33.2-17.1-49.7-25.7C70.9,45.7,45.5,59.3,20.1,73
		c16.6,9,33.2,18,49.7,27C95.2,85.9,120.6,71.9,146,57.8z"/>
	<path id="Серый_57_" class="st8" d="M56.1,65.3c6.2,3.3,12.4,6.6,18.7,9.9c9.4-5.3,18.8-10.7,28.2-16
		c-6.2-3.3-12.4-6.6-18.7-9.9C74.9,54.6,65.5,60,56.1,65.3z"/>
	<path id="Серый_56_" class="st9" d="M69.8,100c-16.6-9-33.2-18-49.7-27C13.4,85.9,6.7,98.8,0,111.8c16.6,9,33.2,18,49.7,27
		C56.4,125.8,63.1,112.9,69.8,100z"/>
	<path id="Серый_55_" class="st10" d="M61.1,98.6c-12.8-6.9-25.5-13.9-38.3-20.8c-5.1,10-10.3,19.9-15.4,29.9
		c12.8,6.9,25.5,13.9,38.3,20.8C50.8,118.5,56,108.5,61.1,98.6z"/>
	<path id="Серый_54_" class="st9" d="M49.7,138.8c-16.6-9-33.2-18-49.7-27c3.2,10.9,6.3,21.8,9.5,32.7c16.6,9,33.2,18,49.7,27
		C56.1,160.6,52.9,149.7,49.7,138.8z"/>
	<path class="st11" d="M190.8,100.1c2.7,10.1-5.2,21.7-15.7,22.3c-7.8,0.5-15.3-5.2-17.3-12.6c-2.8-10.2,5.3-21.9,15.8-22.5
		C181.4,87,188.8,92.7,190.8,100.1z"/>
	<path class="st12" d="M186.9,101.1c2,7.6-3.9,16.2-11.7,16.7c-5.8,0.4-11.4-3.9-12.9-9.4c-2.1-7.6,3.9-16.4,11.8-16.8
		C179.9,91.2,185.4,95.5,186.9,101.1z"/>
	<path class="st11" d="M109,147.1c2.7,10.1-5.2,21.7-15.7,22.3c-7.8,0.5-15.3-5.2-17.3-12.6c-2.8-10.2,5.3-21.9,15.8-22.5
		C99.6,134,107,139.7,109,147.1z"/>
	<path class="st12" d="M104.8,148.3c2,7.6-3.9,16.2-11.7,16.7c-5.8,0.4-11.4-3.9-12.9-9.4c-2.1-7.6,3.9-16.4,11.8-16.8
		C97.8,138.5,103.3,142.8,104.8,148.3z"/>
	<polygon class="st10" points="146,62.6 163,75.2 124.9,94.7 117.9,77.8 	"/>
	<polygon class="st10" points="106.6,83.7 112.8,100 59.2,130.1 72.8,103.1 	"/>
	<path class="st13" d="M196.6,63.8c-2.6,1.3-5.3,2.6-7.9,3.9l1.6,7.5l7.3-3.7C197.3,68.9,196.9,66.4,196.6,63.8z"/>
</g>
<g id="Слой_3">
	<path id="Серый_7_" class="st14" d="M0,88.1c14.2-8.9,28.4-17.8,42.6-26.7c49.3,27.3,98.6,54.6,147.9,81.9
		c-16.6,9-33.2,18-49.7,27C93.8,142.9,46.9,115.5,0,88.1z"/>
	<path id="Серый_6_" class="st15" d="M42.6,61.4c4.9-9.1,9.8-18.2,14.7-27.3c8.3,3.6,16.5,7.2,24.8,10.8
		c7.2-4.7,14.4-9.3,21.6-14c25.4,13.6,50.8,27.3,76.2,40.9c6.7,12.9,13.4,25.9,20.1,38.8c-3.2,10.9-6.3,21.8-9.5,32.7
		C141.2,116,91.9,88.7,42.6,61.4z"/>
	<path id="Серый_5_" class="st16" d="M3.8,59.5C21.6,51,39.4,42.6,57.3,34.1c8.3,3.6,16.5,7.2,24.8,10.8
		c-16.6,9-33.2,18-49.7,27C22.8,67.7,13.3,63.6,3.8,59.5z"/>
	<path id="Серый_50_" class="st17" d="M0,88.1C1.3,78.6,2.6,69,3.8,59.5c9.5,4.1,19,8.3,28.5,12.4c7.2-5.1,14.4-10.2,21.6-15.3
		l76.2,42.2c6.7,12.9,13.4,25.9,20.1,38.8c-3.2,10.9-6.3,21.8-9.5,32.7C93.8,142.9,46.9,115.5,0,88.1z"/>
	<path id="Серый_4_" class="st18" d="M54,56.6c16.6-8.6,33.2-17.1,49.7-25.7c25.4,13.6,50.8,27.3,76.2,40.9
		c-16.6,9-33.2,18-49.7,27C104.8,84.7,79.4,70.7,54,56.6z"/>
	<path id="Серый_3_" class="st19" d="M143.9,64.1c-6.2,3.3-12.4,6.6-18.7,9.9c-9.4-5.3-18.8-10.7-28.2-16
		c6.2-3.3,12.4-6.6,18.7-9.9C125.1,53.4,134.5,58.8,143.9,64.1z"/>
	<path id="Серый_2_" class="st20" d="M130.2,98.8c16.6-9,33.2-18,49.7-27c6.7,12.9,13.4,25.9,20.1,38.8
		c-16.6,9-33.2,18-49.7,27C143.6,124.6,136.9,111.7,130.2,98.8z"/>
	<path id="Серый_1_" class="st21" d="M138.9,97.4c12.8-6.9,25.5-13.9,38.3-20.8c5.1,10,10.3,19.9,15.4,29.9
		c-12.8,6.9-25.5,13.9-38.3,20.8C149.2,117.3,144,107.3,138.9,97.4z"/>
	<path id="Серый_45_" class="st20" d="M150.3,137.6c16.6-9,33.2-18,49.7-27c-3.2,10.9-6.3,21.8-9.5,32.7
		c-16.6,9-33.2,18-49.7,27C143.9,159.4,147.1,148.5,150.3,137.6z"/>
	<path class="st22" d="M9.2,98.9c-2.7,10.1,5.2,21.7,15.7,22.3c7.8,0.5,15.3-5.2,17.3-12.6c2.8-10.2-5.3-21.9-15.8-22.5
		C18.6,85.8,11.2,91.5,9.2,98.9z"/>
	<path class="st23" d="M13.1,99.9c-2,7.6,3.9,16.2,11.7,16.7c5.8,0.4,11.4-3.9,12.9-9.4c2.1-7.6-3.9-16.4-11.8-16.8
		C20.1,90.1,14.6,94.3,13.1,99.9z"/>
	<path class="st22" d="M91,145.9c-2.7,10.1,5.2,21.7,15.7,22.3c7.8,0.5,15.3-5.2,17.3-12.6c2.8-10.2-5.3-21.9-15.8-22.5
		C100.4,132.8,93,138.5,91,145.9z"/>
	<path class="st23" d="M95.2,147.2c-2,7.6,3.9,16.2,11.7,16.7c5.8,0.4,11.4-3.9,12.9-9.4c2.1-7.6-3.9-16.4-11.8-16.8
		C102.2,137.3,96.7,141.6,95.2,147.2z"/>
	<polygon class="st21" points="54,61.4 37,74 75.1,93.5 82.1,76.6 	"/>
	<polygon class="st21" points="93.4,82.5 87.2,98.8 140.8,128.9 127.2,101.9 	"/>
	<path class="st24" d="M3.4,62.7c2.6,1.3,5.3,2.6,7.9,3.9L9.7,74l-7.3-3.7C2.7,67.8,3.1,65.2,3.4,62.7z"/>
</g>
</svg>
