<?xml version="1.0" encoding="utf-8"?>
<!-- Generator: Adobe Illustrator 21.1.0, SVG Export Plug-In . SVG Version: 6.00 Build 0)  -->
<svg version="1.1" xmlns="http://www.w3.org/2000/svg" xmlns:xlink="http://www.w3.org/1999/xlink" x="0px" y="0px"
	 viewBox="0 0 200 200" style="enable-background:new 0 0 200 200;" xml:space="preserve">
<style type="text/css">
	.st0{display:none;}
	.st1{display:inline;fill:#FF6B54;}
	.st2{display:inline;fill:#721E1A;}
	.st3{display:inline;fill:#AA2315;}
	.st4{display:inline;fill:#89372F;}
	.st5{display:inline;fill:#63430A;}
	.st6{fill:#91B8DB;}
	.st7{fill:#77A6C9;}
</style>
<g id="Слой_1" class="st0">
	<path id="Серый_46_" class="st1" d="M195.9,88.5c-15.3-8.3-30.7-16.7-46-25C104.2,88.8,58.6,114,12.9,139.3
		c15.3,8.3,30.7,16.7,46,25C104.6,139,150.2,113.7,195.9,88.5z"/>
	<path id="Серый_49_" class="st2" d="M149.9,63.5c-3.4-8.9-6.8-17.8-10.2-26.8c-8.8,3.8-17.6,7.6-26.4,11.5
		c-6.7-4.7-13.4-9.4-20-14.1l-70.6,39c-6.2,12-12.4,23.9-18.6,35.9c2.9,10.1,5.9,20.2,8.8,30.3C58.6,114,104.2,88.8,149.9,63.5z"/>
	<path id="Серый_53_" class="st3" d="M185.7,61.7c-15.3-8.3-30.7-16.7-46-25c-8.8,3.8-17.6,7.6-26.4,11.5
		c15.3,8.3,30.7,16.7,46,25C168.1,69.4,176.9,65.5,185.7,61.7z"/>
	<path id="Серый_47_" class="st4" d="M195.9,88.5c-3.4-8.9-6.8-17.8-10.2-26.8c-8.8,3.8-17.6,7.6-26.4,11.5
		c-6.7-4.7-13.4-9.4-20-14.1l-70.6,39c-6.2,12-12.4,23.9-18.6,35.9c2.9,10.1,5.9,20.2,8.8,30.3C104.6,139,150.2,113.7,195.9,88.5z"
		/>
	<path id="Серый_48_" class="st3" d="M139.3,59.1c-15.3-8.3-30.7-16.7-46-25c-23.5,13-47,26-70.6,39c15.3,8.3,30.7,16.7,46,25
		C92.2,85.1,115.8,72.1,139.3,59.1z"/>
	<path id="Серый_51_" class="st3" d="M68.7,98.1c-15.3-8.3-30.7-16.7-46-25c-6.2,12-12.4,23.9-18.6,35.9
		c15.3,8.3,30.7,16.7,46,25C56.3,122,62.5,110.1,68.7,98.1z"/>
	<path id="Серый_52_" class="st3" d="M50.1,134c-15.3-8.3-30.7-16.7-46-25c2.9,10.1,5.9,20.2,8.8,30.3
		c15.3,8.3,30.7,16.7,46,25C56,154.2,53.1,144.1,50.1,134z"/>
	<path class="st5" d="M99.3,141.9c3.9,10.3-4.1,23.1-15.1,23.9c-8.7,0.7-17.7-6.3-18.5-16c-0.7-8.6,5.2-16.7,13.8-18.5
		C88.1,129.5,96.6,134.6,99.3,141.9z"/>
	<path class="st5" d="M184.7,97.1c3.9,10.3-4.1,23.1-15.1,23.9c-8.7,0.7-17.7-6.3-18.5-16c-0.7-8.6,5.2-16.7,13.8-18.5
		C173.5,84.6,181.9,89.8,184.7,97.1z"/>
</g>
<g id="Слой_2">
	<path class="st6" d="M169.3,174.1c-7.2-4.1-14.3-8.2-21.5-12.3c-20.7-11.8-36.4-20.6-40.3-22.8c-15.6-8.8-35.7-19.9-59.5-32.8
		c0.3-3,1.7-13.9,10.6-21.7c2.1-1.9,8-7.3,16.1-6.8c9.6,0.6,17.8,5.9,22.5,13.6c7-6.3,16.3-9.8,26.4-9.2
		c17.5,1.1,31.2,14.5,33.3,31.3c0.6,0,1.2,0,1.8,0.1c19.8,1.3,34.9,16.3,33.8,33.5C191.7,159.7,182.2,170.1,169.3,174.1z"/>
	<path class="st7" d="M128.8,122.3c-7.2-4.1-14.3-8.2-21.5-12.3C86.7,98.2,71,89.4,67,87.2C51.4,78.4,31.3,67.3,7.4,54.4
		c0.3-3,1.7-13.9,10.6-21.7c2.1-1.9,8-7.3,16.1-6.8c9.6,0.6,17.8,5.9,22.5,13.6c7-6.3,16.3-9.8,26.4-9.2
		c17.5,1.1,31.2,14.5,33.3,31.3c0.6,0,1.2,0,1.8,0.1c19.8,1.3,34.9,16.3,33.8,33.5C151.2,107.9,141.7,118.3,128.8,122.3z"/>
</g>
</svg>
