<?xml version="1.0" encoding="utf-8"?>
<!-- Generator: Adobe Illustrator 21.1.0, SVG Export Plug-In . SVG Version: 6.00 Build 0)  -->
<svg version="1.1" xmlns="http://www.w3.org/2000/svg" xmlns:xlink="http://www.w3.org/1999/xlink" x="0px" y="0px"
	 viewBox="0 0 200 200" style="enable-background:new 0 0 200 200;" xml:space="preserve">
<style type="text/css">
	.st0{display:none;}
	.st1{display:inline;fill:#FF6B54;}
	.st2{display:inline;fill:#721E1A;}
	.st3{display:inline;fill:#AA2315;}
	.st4{display:inline;fill:#89372F;}
	.st5{display:inline;fill:#63430A;}
	.st6{display:inline;fill:#565656;}
	.st7{display:inline;fill:#91B8DB;}
	.st8{display:inline;fill:#77A6C9;}
	.st9{display:inline;fill:none;stroke:#FACFAC;stroke-miterlimit:10;}
	.st10{display:inline;fill:#FEFF71;}
	.st11{display:inline;fill:#844A18;}
	.st12{display:inline;fill:#FACFAC;}
	.st13{display:inline;fill:none;stroke:#000000;stroke-width:0.25;stroke-miterlimit:10;}
	.st14{display:inline;fill:#77A6D8;}
	.st15{display:inline;fill:#F74D4D;}
	.st16{display:inline;fill:#53E5BE;}
	.st17{display:inline;fill:#D6F45B;}
	.st18{display:inline;fill:none;stroke:#A67C52;stroke-width:2;stroke-miterlimit:10;}
	.st19{display:inline;fill:#8E6700;stroke:#A67C52;stroke-width:2;stroke-miterlimit:10;}
	.st20{fill:#56FF00;}
	.st21{fill:#208B02;}
	.st22{fill:#76C500;}
	.st23{fill:#628333;}
	.st24{fill:#FFFEED;}
	.st25{fill:#B7DEF7;}
	.st26{fill:#E0CFC7;}
</style>
<g id="Слой_1" class="st0">
	<path id="Серый_46_" class="st1" d="M195.9,88.5c-15.3-8.3-30.7-16.7-46-25C104.2,88.8,58.6,114,12.9,139.3
		c15.3,8.3,30.7,16.7,46,25C104.6,139,150.2,113.7,195.9,88.5z"/>
	<path id="Серый_49_" class="st2" d="M149.9,63.5c-3.4-8.9-6.8-17.8-10.2-26.8c-8.8,3.8-17.6,7.6-26.4,11.5
		c-6.7-4.7-13.4-9.4-20-14.1l-70.6,39c-6.2,12-12.4,23.9-18.6,35.9c2.9,10.1,5.9,20.2,8.8,30.3C58.6,114,104.2,88.8,149.9,63.5z"/>
	<path id="Серый_53_" class="st3" d="M185.7,61.7c-15.3-8.3-30.7-16.7-46-25c-8.8,3.8-17.6,7.6-26.4,11.5
		c15.3,8.3,30.7,16.7,46,25C168.1,69.4,176.9,65.5,185.7,61.7z"/>
	<path id="Серый_47_" class="st4" d="M195.9,88.5c-3.4-8.9-6.8-17.8-10.2-26.8c-8.8,3.8-17.6,7.6-26.4,11.5
		c-6.7-4.7-13.4-9.4-20-14.1l-70.6,39c-6.2,12-12.4,23.9-18.6,35.9c2.9,10.1,5.9,20.2,8.8,30.3C104.6,139,150.2,113.7,195.9,88.5z"
		/>
	<path id="Серый_48_" class="st3" d="M139.3,59.1c-15.3-8.3-30.7-16.7-46-25c-23.5,13-47,26-70.6,39c15.3,8.3,30.7,16.7,46,25
		C92.2,85.1,115.8,72.1,139.3,59.1z"/>
	<path id="Серый_51_" class="st3" d="M68.7,98.1c-15.3-8.3-30.7-16.7-46-25c-6.2,12-12.4,23.9-18.6,35.9
		c15.3,8.3,30.7,16.7,46,25C56.3,122,62.5,110.1,68.7,98.1z"/>
	<path id="Серый_52_" class="st3" d="M50.1,134c-15.3-8.3-30.7-16.7-46-25c2.9,10.1,5.9,20.2,8.8,30.3
		c15.3,8.3,30.7,16.7,46,25C56,154.2,53.1,144.1,50.1,134z"/>
	<path class="st5" d="M99.3,141.9c3.9,10.3-4.1,23.1-15.1,23.9c-8.7,0.7-17.7-6.3-18.5-16c-0.7-8.6,5.2-16.7,13.8-18.5
		C88.1,129.5,96.6,134.6,99.3,141.9z"/>
	<path class="st5" d="M184.7,97.1c3.9,10.3-4.1,23.1-15.1,23.9c-8.7,0.7-17.7-6.3-18.5-16c-0.7-8.6,5.2-16.7,13.8-18.5
		C173.5,84.6,181.9,89.8,184.7,97.1z"/>
</g>
<g id="Слой_11" class="st0">
	<path class="st6" d="M219.5,210.5h-233c-6.6,0-12-5.4-12-12V2c0-6.6,5.4-12,12-12h233c6.6,0,12,5.4,12,12v196.5
		C231.5,205.1,226.1,210.5,219.5,210.5z"/>
</g>
<g id="Слой_2" class="st0">
	<path class="st7" d="M169.3,174.1c-7.2-4.1-14.3-8.2-21.5-12.3c-20.7-11.8-36.4-20.6-40.3-22.8c-15.6-8.8-35.7-19.9-59.5-32.8
		c0.3-3,1.7-13.9,10.6-21.7c2.1-1.9,8-7.3,16.1-6.8c9.6,0.6,17.8,5.9,22.5,13.6c7-6.3,16.3-9.8,26.4-9.2
		c17.5,1.1,31.2,14.5,33.3,31.3c0.6,0,1.2,0,1.8,0.1c19.8,1.3,34.9,16.3,33.8,33.5C191.7,159.7,182.2,170.1,169.3,174.1z"/>
	<path class="st8" d="M128.8,122.3c-7.2-4.1-14.3-8.2-21.5-12.3C86.7,98.2,71,89.4,67,87.2C51.4,78.4,31.3,67.3,7.4,54.4
		c0.3-3,1.7-13.9,10.6-21.7c2.1-1.9,8-7.3,16.1-6.8c9.6,0.6,17.8,5.9,22.5,13.6c7-6.3,16.3-9.8,26.4-9.2
		c17.5,1.1,31.2,14.5,33.3,31.3c0.6,0,1.2,0,1.8,0.1c19.8,1.3,34.9,16.3,33.8,33.5C151.2,107.9,141.7,118.3,128.8,122.3z"/>
</g>
<g id="Слой_8" class="st0">
	<line class="st9" x1="110.5" y1="171.4" x2="114.7" y2="174.2"/>
	<line class="st9" x1="116.7" y1="166.2" x2="114.6" y2="174.7"/>
	<line class="st9" x1="116.7" y1="162.6" x2="116.7" y2="166.2"/>
	<line class="st9" x1="115.1" y1="163.2" x2="116.7" y2="166.2"/>
	<line class="st9" x1="118.2" y1="163.2" x2="116.7" y2="166.2"/>
	<line class="st9" x1="113.8" y1="165.4" x2="116.1" y2="166.2"/>
	<line class="st9" x1="119.3" y1="164.4" x2="116.5" y2="166.8"/>
	<path class="st10" d="M105,192.5h-2.7c-2.5,0-4.6-2.1-4.6-4.6v-16.5c0-2.5,2.1-4.6,4.6-4.6h2.7c2.5,0,4.6,2.1,4.6,4.6v16.5
		C109.6,190.4,107.5,192.5,105,192.5z"/>
	<path class="st10" d="M109.9,172.6l-2.8-1.8c-0.6-0.4-0.7-1.2-0.3-1.7l0,0c0.4-0.6,1.2-0.7,1.8-0.3l2.8,1.8
		c0.6,0.4,0.7,1.2,0.3,1.7l0,0C111.3,172.8,110.5,173,109.9,172.6z"/>
	<ellipse class="st11" cx="104.1" cy="160.8" rx="7.6" ry="6.6"/>
	<ellipse class="st12" cx="104.1" cy="163" rx="7.2" ry="6.8"/>
	<path class="st13" d="M101.8,165.1c-0.1,0.3-0.2,0.7-0.2,1.2c0,0.3,0.1,0.5,0.1,0.7"/>
	<path class="st13" d="M101.7,167c0.1,0,0.3,0.1,0.6,0c0.4-0.1,0.5-0.6,0.5-0.6"/>
	<path class="st13" d="M102.7,166.6c0,0.1-0.1,0.2,0,0.4c0.1,0.3,0.5,0.4,0.6,0.4"/>
	<path class="st13" d="M103.3,167.4c0.1,0,0.3-0.1,0.5-0.3c0.5-0.4,0.4-1.1,0.4-1.1"/>
</g>
<g id="Слой_3" class="st0">
	<path class="st14" d="M82.3,142c8.6,2,20.1,3.4,33.2,1.9c3.8-0.5,7.4-1.1,10.7-1.9c49.5-29.6,57.3-89.5,30.7-119.7
		C131.8-6.3,73.8-9.2,46.4,22.7c-24.3,28.4-13.1,71.1,5.1,94.8C61.5,130.6,73.8,138,82.3,142z"/>
</g>
<g id="Слой_6" class="st0">
</g>
<g id="Слой_5" class="st0">
	<path class="st15" d="M85.4,1.2c-4.5,16.5-9.4,40.6-8.8,69.7c0.7,35.8,11.5,69.2,5.7,71.1c-1.5,0.5-3.5-1.4-6-4.1
		c-13.6-14.8-26.5-28.8-31.2-53.2c-1.7-8.9-4.4-22.5,0.6-38.7C54.4,17.9,79.2,4.4,85.4,1.2z"/>
	<path class="st16" d="M102.4-0.1C94.6,0.1,88.8,40.7,89,72.2c0.2,31,6.4,71,14.1,71.2c7.5,0.2,16.4-36.8,16.5-70.2
		C119.7,37.9,110-0.4,102.4-0.1z"/>
	<path class="st17" d="M117.2,1.3c-5.4,2.8,11,27.3,11.6,71.6c0.5,43.7-14.9,68.1-9.6,70.6c6.8,3.2,43.5-31.6,42.2-73.4
		C160.1,29.7,124-2.1,117.2,1.3z"/>
</g>
<g id="Слой_7" class="st0">
</g>
<g id="Слой_4" class="st0">
	<line class="st18" x1="82.3" y1="142" x2="84" y2="183.2"/>
	<line class="st18" x1="126.7" y1="140.8" x2="124.3" y2="182.3"/>
	<rect x="83.2" y="183.2" class="st19" width="42.3" height="17"/>
	<path class="st18" d="M74.4,4C68.6,13.2,54.7,38,56,72.2c1.5,36.6,19.6,61.5,26.3,69.8"/>
	<path class="st18" d="M126.7,140.8c6.1-7.1,24.9-30.5,26.5-65.9c1.7-37.7-17.3-63.9-22.8-71"/>
</g>
<g id="Слой_9">
	<path class="st20" d="M104.7,6.7C85.5,6.3,64.6,57.2,65,102c0.4,44,21.4,93.9,40.3,93.3c18.9-0.5,35.4-51.3,35.7-92.7
		C141.3,59.4,123.9,7.1,104.7,6.7z"/>
	<path class="st21" d="M101.7,31.3c-1.2-0.8-17.1,16.2-23.6,39c-0.5,1.9-1.6,6-2.4,11.4C73.4,97.4,75.6,112,77,112
		c1.6,0-0.7-18.9,7-43.7C91.4,44.7,102.7,32,101.7,31.3z"/>
	<path class="st21" d="M132,110c0.9,0.1,3.3,24.8-9,49.7c-6.1,12.3-14.4,22-15,21.7c-0.5-0.3,6-9.5,11.7-22.1
		C131.9,132.1,131.1,109.9,132,110z"/>
	<path class="st21" d="M103.3,103.7c0.4,0.6,5.8-1.1,8.7-5.7c2.1-3.3,3.1-8.8,0.7-11.3c-3.3-3.4-12.2-0.5-17.3,4
		c-5.4,4.8-10.5,14.9-5.7,22.3c3.9,5.9,13,8.5,18.3,5.3c3.5-2.1,5.6-6.8,5-7.3c-0.3-0.3-1.4,0.7-2.6,1.4c-4.2,2.3-12.2,2.8-15.4-1.7
		c-3.3-4.7-0.3-13.1,4.7-15c2.9-1.1,7-0.1,7.6,1.8C108.1,99.9,102.9,103.1,103.3,103.7z"/>
	<path class="st21" d="M119.7,44.7c1.2-0.4,12.3,16.3,10,35.7c-1.9,15.8-12,27-12.7,26.7c-0.5-0.3,4.9-7.6,6.7-20
		c1.2-8.3,0.2-15.4-1.3-26.3C120.7,48.9,119.1,44.8,119.7,44.7z"/>
	<path class="st21" d="M80.1,145.4c1.4,3.8,3,8.3,5.6,13.9c6.1,13.3,11.7,20.5,11,21c-0.6,0.5-6.1-4.7-10.7-11.3
		c-1.9-2.7-6.9-10.4-10.7-25.4c-3.4-13.2-4-25.1-3.3-25.3C72.7,118.2,74.2,128.8,80.1,145.4z"/>
	<path class="st21" d="M84,122.3c3-3.1,18.1,13.9,29.3,9.3c8.1-3.3,9.9-15.9,11.7-15.3c1.1,0.3,0.8,5.9-1,11
		c-1.2,3.5-4.9,13.9-14.7,16c-10.1,2.2-18.1-6.6-19.7-8.3C85.9,130.9,82.3,124.1,84,122.3z"/>
	<path class="st21" d="M116.3,72.3c-1,1.2-7.2-5.9-15-4.7c-10.8,1.8-15.4,18.4-16.3,18c-1.1-0.5,3.5-26.6,15.7-27.3
		C109.4,57.8,117.5,70.9,116.3,72.3z"/>
	<path class="st21" d="M96,152c9.8,1.6,21.7-7.1,22-6.5c0.1,0.3-2.4,1.7-2.4,1.7c-8.8,4.9-19.5,10.9-27.9,8.5
		c-15.8-4.5-17.5-36.7-15.7-37.3C73.9,117.7,79.5,149.3,96,152z"/>
	<path class="st22" d="M83.3,30.7c-1.6-1.4,4.7-17.1,15.3-18c6.8-0.6,11.8,5.1,17,11c10.1,11.4,13.2,24.6,12.3,25
		c-0.8,0.4-3.6-10.6-14.3-18c-2.2-1.5-10.1-6.9-19-5.3C87.6,26.6,84.3,31.5,83.3,30.7z"/>
	<path class="st22" d="M84.3,87.7c-0.3-0.2,9.1-25.4,23.9-26.7c10.7-1,23,10.5,25.7,23.1c1.4,6.5,0.3,13.4-1.3,13.7
		c-3,0.4-3.4-22.6-15.7-27.3c-9.4-3.6-21.5,5.3-23,6.3C87.1,81.8,84.5,87.8,84.3,87.7z"/>
	<path class="st22" d="M78.5,133.9c2.8-1.4,8,11.2,17.8,11.8c7,0.4,12.2-5.6,12.7-5c0.4,0.6-4.4,7-12,8.7
		c-5.5,1.2-13.9,0.2-17.6-5.8C77.2,139.9,76.8,134.7,78.5,133.9z"/>
	<path class="st22" d="M100.7,163.7c11.6-1.1,19.5-14.6,22-19c5.6-9.6,5.9-16.9,6.8-16.8c1.3,0.2,2.6,15.5-5.2,29.1
		c-1.7,2.9-11.5,19.1-22.6,17.3c-7.3-1.2-12.9-9.7-11.7-11.7C90.9,161.2,94.8,164.2,100.7,163.7z"/>
	<path class="st22" d="M92.1,94.2c1.2,1.6-7.3,6.9-7.1,14.8c0.1,5.1,3.7,8.1,3,8.7c-1,0.8-9.2-3.3-9.7-10.3
		c-0.5-6.6,6.2-10.7,7.3-11.3C87.8,94.7,91.4,93.2,92.1,94.2z"/>
	<path class="st22" d="M120.5,99.1c0.9-0.2,4.6,5.6,2.8,11.3c-2,6.6-10.2,9-10.7,8.3c-0.3-0.5,3.6-2.3,6-7.3
		C121.7,105,119.6,99.2,120.5,99.1z"/>
	<path class="st22" d="M81.7,52.7c0.8,0.4-7.2,10.7-10,28c-2.1,13.2,0.1,22.6-0.7,22.7c-0.8,0.1-5-11.3-3-24.3
		C70.4,63.2,80.9,52.2,81.7,52.7z"/>
	<path class="st23" d="M101.7,103.7c1.1-3.9,4.1-5.4,3.7-6c-0.5-0.8-7.4,0.7-8,4.7c-0.4,2.9,2.7,6,3.7,5.7
		C101.6,107.8,101,106.2,101.7,103.7z"/>
	<path class="st23" d="M100,81c-0.2-1.3,9.8-6.9,17.7-4c11.6,4.3,13.4,24.7,12.3,36c-1.1,11.6-5.9,19.9-6.7,19.7
		c-1.3-0.4,10.2-24,0.3-39c-5.5-8.3-13.7-11-13.7-11C104.5,80.9,100.1,81.9,100,81z"/>
	<path class="st23" d="M107.3,47.3c-0.9-0.9-18.1,8.5-25,26.7c-7,18.5,0,37.4,1.3,37.3c1.1-0.1-3.1-15.7,3.7-34.3
		C94.3,57.7,108.2,48.2,107.3,47.3z"/>
	<path class="st23" d="M91.3,120.7c0.8-0.5,10.5,20.7,20,19.3c11-1.6,14.3-32.1,14.7-32c0.4,0.1-2.9,37.4-14.7,38.7
		C101.1,147.8,90.5,121.2,91.3,120.7z"/>
	<path class="st23" d="M124.7,160.7c0.9,1.6-11.1,15.5-23,13.7c-17.3-2.6-22.6-36.8-22-37c0.5-0.2,5.1,24.3,20.7,28.7
		C112.2,169.4,123.8,159.2,124.7,160.7z"/>
	<path class="st23" d="M103.7,38.3c0.4,0.3,4.2-6.5,9-6c5,0.5,7.4,8.6,8,8.3c0.7-0.3-0.5-11.8-7-12.7
		C107.2,27.2,103.2,38,103.7,38.3z"/>
	<path class="st24" d="M78.6,68.7c0.2,0-0.4-11.7,7.8-20.1c8.7-8.9,21.8-8.1,21.7-9.3c-0.1-1.1-10.5-3.2-18.3,2
		C78,49,78.3,68.7,78.6,68.7z"/>
	<path class="st24" d="M101,108c1.5,1.5,8.3-3.1,8-3.7c-0.2-0.5-5.7,2.3-7,0.6c-1.2-1.5,2-5.9,2.1-5.9
		C104.2,99.2,99.4,106.5,101,108z"/>
	<path class="st24" d="M95,114.3c-0.1,0-3.5,8.2-11.3,13.7c-2.1,1.5-2.8,1.6-3.3,2.7c-3.1,6.9,18.1,22.1,18.7,21.5
		c0.4-0.4-12.2-7.7-12.7-19.2C85.9,123,95.1,114.4,95,114.3z"/>
	<path class="st24" d="M115,49.7c0.9-0.5,9.8,11.5,15.3,27.7c6,17.6,6,33.8,5,34c-0.9,0.1-2.2-11.1-8.3-30
		C120.4,61.1,114.2,50.1,115,49.7z"/>
	<path class="st24" d="M224.3,70.3"/>
	<path class="st24" d="M221,76.7"/>
	<circle class="st24" cx="131.4" cy="145" r="3.3"/>
	<circle class="st24" cx="70.7" cy="111" r="1"/>
	<circle class="st24" cx="81.6" cy="40.9" r="1.5"/>
	<circle class="st24" cx="113.8" cy="43.5" r="1.1"/>
	<circle class="st24" cx="94" cy="83" r="0.7"/>
	<circle class="st24" cx="130.8" cy="57.2" r="0.6"/>
	<circle class="st24" cx="108" cy="13.3" r="0.6"/>
	<circle class="st24" cx="67.9" cy="47.5" r="2.9"/>
	<circle class="st24" cx="150.6" cy="118" r="1.7"/>
	<circle class="st24" cx="68.6" cy="155.5" r="1.1"/>
	<circle class="st24" cx="134.3" cy="161.9" r="1.5"/>
	<circle class="st24" cx="62.1" cy="95.2" r="1.3"/>
	<circle class="st24" cx="139.7" cy="29.3" r="1.3"/>
	<circle class="st24" cx="108.8" cy="51.8" r="1.4"/>
	<ellipse class="st24" cx="103.7" cy="103.7" rx="1.7" ry="1.3"/>
	<circle class="st24" cx="111.2" cy="123.7" r="1"/>
	<circle class="st24" cx="102.4" cy="157.2" r="0.6"/>
	<circle class="st24" cx="101.5" cy="185.5" r="0.9"/>
</g>
<g id="Слой_10">
	<polygon class="st25" points="174.5,66.6 157.8,53.5 178.5,45.7 	"/>
	<polygon class="st25" points="151.1,71.4 139.7,66 149.4,58.9 	"/>
	<polygon class="st25" points="144.5,51.1 164.9,55.6 150.8,71 	"/>
	<polygon class="st25" points="173.8,65.6 184.2,75 171,79.3 	"/>
	<polygon class="st25" points="170.1,55.6 151.7,56.8 159.9,40.3 	"/>
	<polygon class="st25" points="174,72 167.4,56.5 185.5,59.7 	"/>
	<path class="st24" d="M127.3,78.3c-4.9,2.9-9.8,5.8-14.7,8.7c-6.6,0-12,5.4-12,12v5.3c0,6.6,5.4,12,12,12c8.2-2.7,16.4-5.3,24.7-8
		c10.9-1.3,18.6-8,19.3-15.3c0.1-1.4,0.2-5-2.7-9.3c-1.9-2.4-3.9-4.9-5.8-7.3c-1.4-0.9-3.1-1.7-5.3-2.2
		C135.1,72.5,128.7,77.3,127.3,78.3z"/>
	<path class="st26" d="M157.6,81.2L157.6,81.2c-1.2-1.7-3.6-2.1-5.3-0.9l-3.4,2.4c-1.7,1.2-2.1,3.6-0.9,5.3l0,0
		c1.2,1.7,3.6,2.1,5.3,0.9l3.4-2.4C158.4,85.3,158.8,82.9,157.6,81.2z"/>
	<path class="st26" d="M160.8,86L160.8,86c6.4,0.8,12.4-3.8,13.2-10.3l1-7.9c0.8-6.4-3.8-12.4-10.3-13.2l0,0
		c-6.4-0.8-12.4,3.8-13.2,10.3l-1,7.9C149.7,79.3,154.4,85.2,160.8,86z"/>
	<path class="st26" d="M150,72.5L150,72.5c-1.2-0.2-2-1.3-1.8-2.5l0.8-4.6c0.2-1.2,1.3-2,2.5-1.8h0c1.2,0.2,2,1.3,1.8,2.5l-0.8,4.6
		C152.3,71.9,151.2,72.7,150,72.5z"/>
	<path class="st25" d="M147,83.7c-2.1-2.1-12.6,9.7-26.7,13.3c-8.8,2.2-13.1,3.3-14.5,3.3c-1.8,0-4-0.2-5.2,1.2
		c-1.5,1.9-0.4,5.9,1.1,7.7c7.7,9.1,50.3-16,48.9-19.6c-0.2-0.6-1.4-0.7-2.5-2.3C147,85.5,147.6,84.3,147,83.7z"/>
</g>
</svg>
